<svg width="42" height="33" viewBox="0 0 42 33" fill="none" xmlns="http://www.w3.org/2000/svg">
<path fill-rule="evenodd" clip-rule="evenodd" d="M14.9021 0.0150588C14.607 0.0678294 13.5865 0.280457 13.235 0.362408C11.0389 0.874457 8.89079 1.60957 6.83105 2.55397C6.64741 2.63817 6.47117 2.72049 6.4394 2.73691C6.39236 2.76122 6.34231 2.82824 6.16985 3.09789C2.96418 8.11029 1.01521 13.3032 0.300566 18.7362C0.168804 19.7379 0.0811406 20.7161 0.0207954 21.8581C-0.00697874 22.3838 -0.00691613 24.9659 0.0208895 25.4898C0.0601445 26.2295 0.140417 27.3723 0.158519 27.449C0.162639 27.4665 0.199581 27.5057 0.240582 27.5361C0.669006 27.8538 0.837853 27.9768 1.14868 28.1977C3.08519 29.5739 5.12786 30.7376 7.24296 31.6696C8.2336 32.1061 9.21985 32.4853 10.2835 32.8389C10.5501 32.9275 10.7736 33 10.78 33C10.7926 33 11.1981 32.417 11.4061 32.1C11.9293 31.3026 12.4497 30.4059 12.8676 29.5817L13.0623 29.1978L12.7414 29.068C11.9149 28.7335 11.0734 28.3315 10.294 27.8987C9.96544 27.7162 9.49195 27.4366 9.49195 27.425C9.49195 27.4195 9.55701 27.3654 9.63653 27.3046C9.77999 27.195 10.1393 26.9047 10.2818 26.7832L10.3561 26.72L10.6593 26.8601C13.3349 28.0964 16.1878 28.8587 19.0305 29.0968C19.6861 29.1518 19.9539 29.1636 20.7447 29.1725C21.7594 29.184 22.4585 29.1538 23.4134 29.0571C26.0636 28.7887 28.7033 28.0594 31.213 26.9022C31.3634 26.8329 31.5123 26.7635 31.5439 26.748L31.6014 26.7198L31.8034 26.8866C31.9145 26.9784 32.108 27.1342 32.2334 27.2329C32.3589 27.3316 32.4633 27.4172 32.4655 27.423C32.4677 27.4289 32.3403 27.5098 32.1824 27.6029C31.2202 28.1701 30.2803 28.6355 29.2374 29.0611C29.0558 29.1352 28.904 29.199 28.9003 29.2028C28.8779 29.2253 29.5088 30.401 29.895 31.0567C30.3103 31.7617 31.1263 32.9985 31.1769 32.9996C31.2046 33.0001 32.0801 32.7071 32.4851 32.5617C35.4486 31.4976 38.1894 30.0612 40.8141 28.1967C41.0982 27.9949 41.7615 27.5093 41.7935 27.4797C41.8031 27.4709 41.8241 27.2344 41.865 26.6742C41.9298 25.7876 41.9683 24.9539 41.9684 24.4345C41.9685 24.2408 41.9743 24.1279 41.9843 24.1279C41.9944 24.1279 42 23.9633 42 23.666C42 23.3687 41.9944 23.2041 41.9843 23.2041C41.9744 23.2041 41.9685 23.0991 41.9684 22.9213C41.9683 22.5961 41.9475 22.0398 41.9131 21.444C41.6278 16.4977 40.3695 11.7606 38.1433 7.25258C37.4534 5.85535 36.7364 4.59108 35.8378 3.1869L35.5605 2.75364L35.4579 2.70677C34.7936 2.40339 34.4902 2.26854 34.146 2.12372C32.4432 1.40728 30.6147 0.810855 28.8206 0.386619C28.1202 0.220981 26.94 -0.0158422 26.8981 0.000834783C26.8371 0.0251574 26.0853 1.5906 25.8006 2.28617C25.7828 2.32977 25.7769 2.32986 25.5149 2.2909C22.5843 1.85518 19.4298 1.85244 16.4971 2.28305C16.3447 2.30543 16.2099 2.32155 16.1975 2.31889C16.1851 2.31623 16.1355 2.22086 16.0873 2.10698C15.8776 1.61149 15.3712 0.560684 15.1277 0.115933C15.0596 -0.0084992 15.0523 -0.0117964 14.9021 0.0150588ZM14.5404 13.8135C15.9595 14.058 17.1228 15.1588 17.5814 16.691C17.6487 16.9159 17.7059 17.189 17.7429 17.4619C17.7823 17.7521 17.7821 18.4585 17.7427 18.7521C17.6294 19.5948 17.3397 20.3415 16.8891 20.9528C16.2648 21.7996 15.4355 22.3178 14.4696 22.4648C14.2357 22.5004 13.7739 22.5002 13.5417 22.4645C12.3757 22.285 11.3572 21.5117 10.7596 20.3522C10.2912 19.4434 10.1286 18.3841 10.2952 17.3265C10.3967 16.682 10.6393 16.0474 10.9925 15.5027C11.3016 15.0261 11.7374 14.5908 12.197 14.2996C12.3649 14.1932 12.6957 14.0319 12.8812 13.966C13.0685 13.8994 13.3508 13.8303 13.526 13.8082C13.6038 13.7984 13.6852 13.7873 13.7068 13.7836C13.7996 13.7675 14.3986 13.7891 14.5404 13.8135ZM28.4904 13.8135C29.6712 14.017 30.6757 14.8032 31.249 15.9726C31.4801 16.444 31.6197 16.9039 31.6938 17.438C31.7329 17.7202 31.7329 18.4777 31.6938 18.7601C31.5684 19.665 31.2464 20.4471 30.7296 21.1015C30.4801 21.4174 30.0678 21.7839 29.7286 21.9913C28.1279 22.97 26.1432 22.4887 25.0081 20.8467C24.0547 19.4673 23.915 17.5794 24.6518 16.0283C24.981 15.3351 25.4654 14.7613 26.0571 14.3632C26.5426 14.0367 27.0278 13.8593 27.6411 13.7843C27.7675 13.7688 28.3467 13.7887 28.4904 13.8135Z" fill="white"/>
</svg>
