<svg width="78" height="71" viewBox="0 0 78 71" fill="none" xmlns="http://www.w3.org/2000/svg">
<path fill-rule="evenodd" clip-rule="evenodd" d="M51.8332 0.194771C47.2649 0.712456 46.6459 0.887599 43.2746 2.61677C39.2289 4.69138 34.7215 6.32959 33.0578 6.32959C32.302 6.32959 30.8306 5.83222 29.1154 4.99683C26.7911 3.86502 26.0816 3.66698 24.4036 3.68181C22.2656 3.70084 20.5348 4.28142 18.8891 5.53097C17.6465 6.47474 15.9996 10.3953 15.3695 13.9094C14.4913 18.8069 13.2707 21.9511 10.8074 25.6607C10.0338 26.8258 9.22104 28.4578 9.0014 29.2877C8.63146 30.6863 8.66839 30.9598 9.50741 33.0351C10.59 35.7129 10.6189 35.6364 7.34119 38.7903C4.62201 41.4071 1.54942 45.3273 0.620351 47.3658C-0.71559 50.2964 0.0414667 53.8531 3.52353 61.0053C7.81481 69.8198 10.4601 70.9758 26.379 70.9913L35.1255 71L37.717 70.0765C39.9956 69.2644 41.0096 69.1157 46.1162 68.8441C52.6673 68.4958 53.334 68.2916 55.5711 65.9467C57.244 64.1933 59.383 61.0201 60.4993 58.6362C61.3202 56.8835 61.3581 56.5593 61.4144 50.7757C61.4468 47.458 61.5796 44.41 61.7092 44.0023C61.8391 43.5946 62.4342 42.6234 63.0319 41.8438C63.6296 41.0645 64.1184 40.2356 64.1184 40.0017C64.1184 39.3102 65.4712 38.2616 66.3662 38.2597C68.2412 38.2558 69.7472 37.5372 71.4644 35.8274C73.5701 33.7311 74.952 30.9608 75.4551 27.8282C75.6589 26.5593 76.2452 24.286 76.7577 22.7768C77.2705 21.2673 77.7904 19.0547 77.9135 17.8593C78.255 14.5416 77.701 13.4433 74.1409 10.3798C72.5309 8.99446 70.6488 7.03274 69.9584 6.02027C68.5114 3.89889 65.662 1.87814 62.6467 0.835024C60.4047 0.0596242 55.5588 -0.227442 51.8332 0.194771ZM61.7128 2.58032C64.0986 3.32798 67.1285 5.39743 68.283 7.06854C68.8324 7.86329 70.6695 9.8105 72.3657 11.3955C74.1869 13.0976 75.597 14.6987 75.8098 15.306C76.242 16.5404 75.7745 19.6939 74.7917 22.1772C74.4405 23.0642 73.9287 25.085 73.6543 26.6677C73.3799 28.2508 72.8717 30.1844 72.525 30.965C71.7583 32.6909 69.1777 35.619 68.2101 35.8606C67.7521 35.9751 66.2069 35.4213 63.7876 34.2756C61.7426 33.307 59.0487 32.189 57.8015 31.7913C54.0949 30.6095 54.2404 30.9598 54.2242 23.1729C54.2154 18.8663 54.058 15.8015 53.7814 14.5545C52.6304 9.3612 49.5798 6.57989 44.5179 6.10929C43.3494 6.00059 42.3274 5.80545 42.2464 5.67514C42.1657 5.54516 43.3002 4.8333 44.7673 4.0937C47.0696 2.93318 47.9238 2.69095 50.9987 2.32486C55.3949 1.80169 59.543 1.90071 61.7128 2.58032ZM28.5245 6.97468C31.3651 8.3426 33.0461 8.57064 35.7734 7.95812C39.8994 7.03145 45.4126 7.32142 47.9212 8.59709C51.6641 10.5001 53.0324 14.7848 52.6553 23.4245C52.3353 30.7589 52.7755 31.7465 56.9952 33.1583C58.4925 33.6592 60.856 34.601 62.247 35.251L64.776 36.4325L63.7183 37.3117L62.6606 38.1907L61.2029 37.4598C58.6632 36.1864 55.059 35.0362 53.6081 35.0362C51.3783 35.0362 48.9193 36.4889 47.8989 38.4087C47.4411 39.2696 46.1292 40.8088 44.9834 41.829L42.9001 43.6839L42.8013 47.9825C42.7232 51.3695 42.5924 52.4017 42.1842 52.851C41.1628 53.9747 40.7294 53.5712 40.8032 51.5666C40.9098 48.6795 41.0044 48.8198 39.0938 49.035C38.1586 49.1404 36.7173 49.2207 35.8916 49.2133C34.9515 49.2049 34.2022 49.3872 33.8877 49.7004C33.5741 50.0123 33.3085 50.0774 33.1818 49.8733C33.0578 49.6733 31.5653 49.583 29.3548 49.6417C26.7435 49.711 25.4768 49.6123 24.8212 49.2888C24.3184 49.0404 23.3764 48.9024 22.7155 48.9801C21.8762 49.0792 21.4052 48.9688 21.1347 48.6102C20.8072 48.1757 20.6449 48.1628 20.0505 48.5247C19.6656 48.7589 19.3213 48.904 19.2847 48.8472C19.2481 48.7908 18.9721 48.3525 18.6714 47.8735C18.0336 46.8571 16.1661 46.2217 15.0546 46.6426C14.5914 46.8181 14.1864 46.7968 13.9743 46.5856C13.6105 46.2233 11.6321 45.7256 9.53397 45.4692C8.82129 45.3821 7.77884 45.1035 7.21745 44.8503C6.65606 44.5971 5.96347 44.39 5.67872 44.39C4.72309 44.39 5.14454 43.7784 8.15721 40.793C12.7617 36.2299 12.9127 35.8506 11.4767 32.4535C10.7384 30.7073 10.7037 30.426 11.0882 29.3145C11.3205 28.6433 12.1015 27.2247 12.8239 26.1623C13.5463 25.1001 14.3653 23.7896 14.6435 23.25C15.4152 21.7547 16.7553 17.4187 17.2814 14.7158C17.8149 11.9738 18.8545 8.83254 19.606 7.69073C20.3015 6.63375 22.5079 5.69998 24.3304 5.69159C25.4448 5.68643 26.5526 6.02543 28.5245 6.97468ZM23.5908 9.39281C22.4839 9.99177 21.931 10.8814 21.0832 13.4256C20.6993 14.5787 19.8558 16.393 19.2089 17.4574C17.674 19.9829 17.4482 20.8219 17.9704 22.0585C18.6254 23.6097 20.0748 24.1864 22.7994 23.9803C25.7881 23.7545 27.6502 22.9949 28.4759 21.6647C28.8611 21.0441 29.3991 19.0456 29.7918 16.7781C30.5912 12.159 30.3408 10.5311 28.6751 9.51989C27.4752 8.79126 24.8251 8.72481 23.5908 9.39281ZM39.9328 9.86405C38.1446 10.2882 36.4281 11.3432 36.3176 12.0857C36.1637 13.1201 37.0938 13.2946 38.6267 12.5196C39.3614 12.1483 40.0076 11.8896 40.063 11.9448C40.1184 11.9999 39.6344 12.8273 38.9872 13.7836C36.4125 17.588 35.7562 19.7575 36.2411 22.8601C36.4967 24.4957 36.397 24.6379 35.4685 23.9619C34.9687 23.598 34.8822 23.0884 34.9075 20.6558C34.924 19.074 34.98 17.1994 35.0315 16.4898C35.1119 15.386 35.0325 15.1996 34.4818 15.1996C33.5113 15.1996 32.9525 16.7294 32.772 19.8797C32.579 23.2545 32.9683 24.6215 34.3979 25.5846C36.6542 27.1048 41.0485 27.4283 43.3938 26.2468C45.7453 25.0621 48.5746 20.2287 48.562 17.4177C48.5474 14.2168 46.1548 10.8875 43.2519 10.0292C41.5029 9.51183 41.4314 9.50828 39.9328 9.86405ZM24.4052 13.3327C23.8976 14.5368 23.0045 16.3204 22.4208 17.2961C21.6216 18.6325 21.3595 19.4482 21.3589 20.6022C21.3579 22.2521 21.3132 22.3059 20.3647 21.8005C19.468 21.3225 19.5658 20.8377 21.1609 17.8574C21.9433 16.3956 22.8296 14.4377 23.1305 13.5066C23.6103 12.0206 24.7794 10.5965 25.1863 11.0017C25.2646 11.0794 24.9132 12.1286 24.4052 13.3327ZM16.7679 27.6289C16.111 28.0105 15.3151 30.1296 15.0374 32.2374C14.9244 33.0928 14.4757 34.7365 14.0397 35.8896C13.3656 37.673 13.2975 38.1729 13.5852 39.2367C13.9875 40.7242 15.3488 41.8096 16.812 41.8096C19.4538 41.8096 24.5325 38.0026 26.0729 34.8678C27.1053 32.7664 26.9803 31.3395 25.6327 29.8474C24.0045 28.0443 18.4466 26.6535 16.7679 27.6289ZM19.0903 29.3564C19.0903 29.4258 18.802 30.1151 18.4495 30.8885C18.0971 31.6617 17.8055 32.8025 17.8013 33.4234C17.7974 34.0443 17.5026 35.3158 17.1463 36.2492C16.7903 37.1824 16.4987 38.3977 16.4987 38.9496C16.4987 39.8053 16.4272 39.894 16.0128 39.5518C15.3847 39.0325 15.3944 37.6881 16.0381 36.1551C16.319 35.4851 16.7579 33.8347 17.0135 32.4871C17.6131 29.3223 17.6533 29.2303 18.4324 29.2303C18.7942 29.2303 19.0903 29.2871 19.0903 29.3564ZM55.7769 36.9885C56.4451 37.173 56.9916 37.3836 56.9916 37.4562C56.9916 37.5288 56.5339 38.3564 55.9741 39.2957C53.9255 42.7337 52.7804 45.4608 52.7804 46.902C52.7804 49.4127 52.243 49.8026 47.7593 50.5458C46.5121 50.7525 45.2364 51.0538 44.9248 51.215C44.4016 51.486 44.3579 51.2379 44.3579 47.9886V44.4684L46.1616 42.934C47.1535 42.0902 48.4094 40.6162 48.9523 39.6579C50.4652 36.9888 52.6657 36.128 55.7769 36.9885ZM61.8508 40.0014C61.8508 40.243 61.6214 40.6301 61.3412 40.8617C61.061 41.0932 60.5194 41.8728 60.1381 42.5944C59.5016 43.7981 59.4429 44.4135 59.427 50.0632L59.4095 56.22L58.2093 58.6107C56.691 61.6355 54.1345 65.0045 52.7295 65.8325C51.838 66.3576 50.587 66.5376 45.6536 66.8501C40.3552 67.1856 39.304 67.3491 36.5832 68.2622L33.5058 69.2947L25.8931 69.127C17.7084 68.9464 13.179 68.4016 11.1064 67.3488C9.1122 66.336 7.22102 64.0208 5.45423 60.4289C3.90481 57.2789 3.86302 57.1257 4.52775 57.0234C4.91162 56.9641 5.54655 57.2176 5.94208 57.5879C6.45877 58.0711 7.08593 58.2594 8.17794 58.2594C9.01793 58.2594 9.69594 58.4101 9.69594 58.5965C9.69594 58.782 10.0536 59.29 10.4909 59.7254C11.1861 60.4176 11.3902 60.4695 12.1168 60.1399C12.8456 59.8093 13.0562 59.8651 13.8324 60.594C15.9701 62.6016 21.3579 62.6751 21.3579 60.6966C21.3579 60.1402 21.4975 59.9457 21.8111 60.0657C22.0602 60.1609 22.3605 60.0838 22.4781 59.8941C22.8548 59.2871 23.3016 59.5251 23.3016 60.3331C23.3016 61.2582 24.0162 62.0535 25.0887 62.3216C26.2559 62.6132 28.1659 61.851 28.7328 60.8672L29.2323 60.0009L29.9644 60.7298C30.426 61.1894 30.9622 61.4075 31.4167 61.3204C32.2842 61.154 33.3438 60.2528 33.3438 59.6812C33.3438 59.3919 33.6713 59.3206 34.4332 59.4435C35.6895 59.6467 36.7782 59.1719 37.0562 58.3004C37.2169 57.7966 37.4831 57.7218 38.6532 57.8534C39.8563 57.9882 40.134 57.9027 40.5881 57.257C40.8797 56.8425 41.1184 56.2619 41.1184 55.9671C41.1184 55.672 41.5195 55.1775 42.0093 54.8682C42.4991 54.5586 43.2645 53.9809 43.71 53.5845C44.6238 52.7713 45.0501 52.6359 48.8412 51.9566C50.3272 51.6905 51.9786 51.2483 52.5112 50.9741C53.6583 50.3832 54.4001 48.7995 54.4001 46.94C54.4001 45.557 55.3518 43.3849 57.5294 39.7985L58.6522 37.9487L60.2515 38.7558C61.131 39.1996 61.8508 39.7602 61.8508 40.0014ZM6.39366 45.9572C6.72085 46.164 6.58155 46.601 5.77817 47.8877C4.62364 49.7371 4.70949 49.6781 3.84164 49.2159C3.24526 48.8979 3.24007 48.8282 3.74024 47.8451C4.7422 45.8747 5.45747 45.366 6.39366 45.9572ZM8.80866 48.5831C7.6457 50.5338 7.33116 50.7532 6.47206 50.2122C6.083 49.9671 6.19476 49.6342 7.11995 48.2825C7.99232 47.0084 8.42771 46.6488 9.10021 46.6484L9.96222 46.6478L8.80866 48.5831ZM13.1971 48.0093C13.3665 48.8946 11.4057 51.487 10.5712 51.4811C9.13746 51.4711 8.93014 51.0454 9.66258 49.6159C10.0325 48.8937 10.6652 48.0715 11.0685 47.7883C11.9729 47.1535 13.0546 47.2658 13.1971 48.0093ZM17.4048 48.3431C18.113 49.1924 18.1891 50.4609 17.5927 51.466C17.0848 52.3223 16.8334 52.4485 15.6999 52.4156C14.9811 52.3946 13.9943 52.2856 13.5065 52.1737L12.6202 51.9698L13.9535 49.9539C15.0527 48.2921 15.443 47.938 16.1771 47.938C16.6665 47.938 17.2192 48.1202 17.4048 48.3431ZM2.73181 49.8742C2.84228 50.0523 2.82478 50.8867 2.69326 51.7289C2.48658 53.0529 2.42244 53.151 2.21998 52.4536C1.67802 50.5874 2.04052 48.7605 2.73181 49.8742ZM20.0109 52.4536C19.8538 53.7841 19.8166 56.1942 19.9287 57.8095C20.1266 60.666 20.112 60.7514 19.4006 60.9369C18.5001 61.1714 15.7874 60.6847 14.892 60.128C13.9561 59.5461 14.0633 58.8571 15.4207 56.7335C17.1039 54.1009 20.1234 49.8233 20.2176 49.9381C20.2614 49.991 20.1684 51.1231 20.0109 52.4536ZM39.7601 51.2441C39.6775 52.3836 39.5376 52.6323 38.9318 52.7181C38.2807 52.81 38.2029 52.6842 38.2029 51.5353C38.2029 50.3074 38.467 49.9571 39.4362 49.8987C39.7371 49.8807 39.8311 50.2706 39.7601 51.2441ZM24.9239 50.6828C25.7178 51.6353 24.5144 55.4975 22.6686 57.9214L22.066 58.7126L21.6627 57.2763C21.0962 55.2578 21.0829 51.4028 21.6404 50.7312C22.2063 50.0497 24.3696 50.0178 24.9239 50.6828ZM29.5935 50.8006C29.6897 50.9557 29.5031 51.8627 29.1789 52.8165C28.6424 54.3934 28.4934 54.5595 27.5313 54.6537L26.4739 54.7572L26.7055 53.041C26.8332 52.0969 27.0849 51.1434 27.2647 50.9215C27.6375 50.4622 29.3288 50.3745 29.5935 50.8006ZM32.6658 50.966C32.8993 51.2463 32.9593 51.9098 32.8261 52.74C32.6204 54.0212 32.5715 54.0663 31.393 54.0663C30.1815 54.0663 30.1743 54.0586 30.4118 53.0103C30.9191 50.7709 31.8213 49.9529 32.6658 50.966ZM36.0086 51.5147C36.1628 52.5601 35.6069 53.4213 34.7785 53.4213C34.4578 53.4213 34.3156 53.0413 34.3156 52.1849C34.3156 50.809 34.4883 50.5183 35.3046 50.5183C35.6797 50.5183 35.9097 50.8441 36.0086 51.5147ZM5.16074 53.617C5.16074 54.7511 5.02015 55.6791 4.84813 55.6791C4.34505 55.6791 3.86496 54.5211 3.86496 53.3077C3.86496 51.8092 4.14388 51.1663 4.70171 51.3795C5.03149 51.5057 5.16074 52.1353 5.16074 53.617ZM7.89611 52.4536C8.15689 52.4536 8.38753 53.1026 8.51711 54.2002C8.63049 55.1607 8.8119 56.1768 8.92042 56.458C9.07688 56.8644 8.88576 56.9693 7.98682 56.9693C6.67355 56.9693 6.46785 56.5406 6.46105 53.7899C6.45716 52.3459 6.54073 52.0943 6.96899 52.2578C7.25082 52.3656 7.66806 52.4536 7.89611 52.4536ZM12.8732 53.6506C14.8832 53.8373 14.9205 53.858 14.7151 54.6724C14.4025 55.9123 12.1971 59.0658 11.6425 59.0658C11.0063 59.0658 9.71862 55.88 9.70598 54.2738C9.69756 53.2229 9.78341 53.0632 10.259 53.2448C10.5683 53.3632 11.7449 53.5458 12.8732 53.6506ZM39.9976 54.4099C40.1149 54.5989 40.1168 55.252 40.0021 55.8613C39.742 57.2412 38.6778 57.4063 38.1948 56.1419C37.7961 55.0969 37.7867 55.172 38.3879 54.5731C38.9765 53.9873 39.6905 53.9148 39.9976 54.4099ZM36.5832 55.5281C36.5832 56.7338 35.718 58.582 35.1533 58.582C34.4867 58.582 33.9917 57.5698 33.9917 56.2064C33.9917 55.2936 34.1303 55.0524 34.7206 54.9392C36.3672 54.6234 36.5832 54.6914 36.5832 55.5281ZM32.3921 59.0132C31.5579 61.1975 30.0146 60.1131 30.1714 57.4531C30.2641 55.8784 30.2932 55.8365 31.4001 55.6791C32.5245 55.5191 32.5346 55.5285 32.6301 56.8277C32.6829 57.5482 32.576 58.5317 32.3921 59.0132ZM28.3301 56.9812C28.6897 57.5605 28.1192 59.9135 27.46 60.5698C27.0107 61.0172 26.482 61.1704 25.6317 61.1001C24.5717 61.0124 24.4227 60.8914 24.3255 60.0393C24.2653 59.5103 24.3803 58.5307 24.5814 57.8621C24.9397 56.6716 24.9796 56.6467 26.5348 56.6467C27.4082 56.6467 28.2158 56.7973 28.3301 56.9812Z" fill="white"/>
</svg>
