<svg width="59" height="57" viewBox="0 0 59 57" fill="none" xmlns="http://www.w3.org/2000/svg">
<path d="M42.1429 0C34.3886 0 28.0952 6.22829 28.0952 13.9024C28.0952 21.5766 34.3886 27.8049 42.1429 27.8049C49.8971 27.8049 56.1905 21.5766 56.1905 13.9024C56.1905 6.22829 49.8971 0 42.1429 0ZM42.1429 22.2439C37.479 22.2439 33.7143 18.518 33.7143 13.9024C33.7143 9.28683 37.479 5.56098 42.1429 5.56098C46.8067 5.56098 50.5714 9.28683 50.5714 13.9024C50.5714 18.518 46.8067 22.2439 42.1429 22.2439ZM50.5714 38.9268H44.9524C44.9524 35.5902 42.8452 32.5873 39.6986 31.4195L22.3919 25.0244H0V55.6098H16.8571V51.6059L36.5238 57L59 50.0488V47.2683C59 42.6527 55.2352 38.9268 50.5714 38.9268ZM11.2381 50.0488H5.61905V30.5854H11.2381V50.0488ZM36.4395 51.1888L16.8571 45.878V30.5854H21.3805L37.7319 36.619C38.6871 36.9805 39.3333 37.898 39.3333 38.9268C39.3333 38.9268 33.7143 38.7878 32.8714 38.5098L26.1848 36.3132L24.4148 41.5961L31.1014 43.7927C32.5343 44.2654 34.0233 44.4878 35.5405 44.4878H50.5714C51.6671 44.4878 52.6505 45.1551 53.1 46.0727L36.4395 51.1888Z" fill="white"/>
</svg>
