<svg width="50" height="56" viewBox="0 0 50 56" fill="none" xmlns="http://www.w3.org/2000/svg">
<path d="M31.3333 6.58824H50V39.5294H26.6667L25.3333 32.9412H6.66667V56H0V0H30L31.3333 6.58824ZM30 32.9412H36.6667V26.3529H43.3333V19.7647H36.6667V13.1765H30V19.7647L26.6667 13.1765V6.58824H20V13.1765H13.3333V6.58824H6.66667V13.1765H13.3333V19.7647H6.66667V26.3529H13.3333V19.7647H20V26.3529H26.6667V19.7647L30 26.3529V32.9412ZM20 19.7647V13.1765H26.6667V19.7647H20ZM30 19.7647H36.6667V26.3529H30V19.7647Z" fill="white"/>
</svg>
