<svg width="38" height="28" viewBox="0 0 38 28" fill="none" xmlns="http://www.w3.org/2000/svg">
<path d="M38 3.29412C36.6013 3.87059 35.0937 4.24941 33.5316 4.43059C35.13 3.55765 36.3652 2.17412 36.9465 0.510588C35.4388 1.33412 33.7677 1.91059 32.0057 2.24C30.5707 0.82353 28.5545 0 26.2658 0C21.9971 0 18.5096 3.16235 18.5096 7.06588C18.5096 7.62588 18.5822 8.16941 18.7094 8.68C12.2428 8.38353 6.4847 5.56706 2.65201 1.30118C1.97992 2.33882 1.59847 3.55765 1.59847 4.84235C1.59847 7.29647 2.9608 9.47059 5.06788 10.7059C3.7782 10.7059 2.57935 10.3765 1.52581 9.88235C1.52581 9.88235 1.52581 9.88235 1.52581 9.93176C1.52581 13.3576 4.21415 16.2235 7.77438 16.8659C7.12046 17.0306 6.43021 17.1129 5.7218 17.1129C5.23136 17.1129 4.74092 17.0635 4.26864 16.9812C5.24952 19.7647 8.10134 21.84 11.5344 21.8894C8.88241 23.8 5.52199 24.92 1.85277 24.92C1.23518 24.92 0.617591 24.8871 0 24.8212C3.45124 26.8306 7.55641 28 11.9522 28C26.2658 28 34.131 17.2282 34.131 7.88941C34.131 7.57647 34.131 7.28 34.1128 6.96706C35.6386 5.97882 36.9465 4.72706 38 3.29412Z" fill="white"/>
</svg>
