<svg width="46" height="33" viewBox="0 0 46 33" fill="none" xmlns="http://www.w3.org/2000/svg">
<path d="M18.4 23.5714L30.337 16.5L18.4 9.42857V23.5714ZM44.988 5.115C45.287 6.22286 45.494 7.70786 45.632 9.59357C45.793 11.4793 45.862 13.1057 45.862 14.52L46 16.5C46 21.6621 45.632 25.4571 44.988 27.885C44.413 30.0064 43.079 31.3736 41.009 31.9629C39.928 32.2693 37.95 32.4814 34.914 32.6229C31.924 32.7879 29.187 32.8586 26.657 32.8586L23 33C13.363 33 7.36 32.6229 4.991 31.9629C2.921 31.3736 1.587 30.0064 1.012 27.885C0.713 26.7771 0.506 25.2921 0.368 23.4064C0.207 21.5207 0.138 19.8943 0.138 18.48L0 16.5C0 11.3379 0.368 7.54286 1.012 5.115C1.587 2.99357 2.921 1.62643 4.991 1.03714C6.072 0.730714 8.05 0.518571 11.086 0.377143C14.076 0.212142 16.813 0.141428 19.343 0.141428L23 0C32.637 0 38.64 0.377143 41.009 1.03714C43.079 1.62643 44.413 2.99357 44.988 5.115Z" fill="white"/>
</svg>
